<svg width="193" height="151" viewBox="0 0 193 151" fill="none" xmlns="http://www.w3.org/2000/svg">
<path d="M46.6718 60.5496C46.5784 60.5496 46.4991 60.5216 46.4338 60.4656C46.3778 60.4002 46.3498 60.3209 46.3498 60.2276V51.0856C46.3498 50.9829 46.3778 50.9036 46.4338 50.8476C46.4991 50.7822 46.5784 50.7496 46.6718 50.7496H52.4538C52.5471 50.7496 52.6218 50.7822 52.6778 50.8476C52.7431 50.9036 52.7758 50.9829 52.7758 51.0856V51.6176C52.7758 51.7109 52.7478 51.7902 52.6918 51.8556C52.6358 51.9116 52.5564 51.9396 52.4538 51.9396H47.6938V55.0056H52.1458C52.2391 55.0056 52.3138 55.0382 52.3698 55.1036C52.4351 55.1596 52.4678 55.2389 52.4678 55.3416V55.8596C52.4678 55.9529 52.4351 56.0322 52.3698 56.0976C52.3138 56.1536 52.2391 56.1816 52.1458 56.1816H47.6938V59.3596H52.5658C52.6684 59.3596 52.7478 59.3876 52.8038 59.4436C52.8598 59.4996 52.8878 59.5789 52.8878 59.6816V60.2276C52.8878 60.3209 52.8551 60.4002 52.7898 60.4656C52.7338 60.5216 52.6591 60.5496 52.5658 60.5496H46.6718ZM54.98 60.5496C54.8867 60.5496 54.8073 60.5216 54.742 60.4656C54.686 60.4002 54.658 60.3209 54.658 60.2276V53.5916C54.658 53.4982 54.686 53.4236 54.742 53.3676C54.8073 53.3022 54.8867 53.2696 54.98 53.2696H55.638C55.7313 53.2696 55.806 53.3022 55.862 53.3676C55.9273 53.4236 55.96 53.4982 55.96 53.5916V54.2076C56.2307 53.8622 56.548 53.5962 56.912 53.4096C57.2853 53.2229 57.7473 53.1296 58.298 53.1296C59.194 53.1296 59.8893 53.4189 60.384 53.9976C60.888 54.5669 61.14 55.3276 61.14 56.2796V60.2276C61.14 60.3209 61.1073 60.4002 61.042 60.4656C60.986 60.5216 60.9113 60.5496 60.818 60.5496H60.118C60.0247 60.5496 59.9453 60.5216 59.88 60.4656C59.824 60.4002 59.796 60.3209 59.796 60.2276V56.3496C59.796 55.6869 59.6327 55.1736 59.306 54.8096C58.9887 54.4456 58.5267 54.2636 57.92 54.2636C57.332 54.2636 56.8653 54.4502 56.52 54.8236C56.1747 55.1876 56.002 55.6962 56.002 56.3496V60.2276C56.002 60.3209 55.9693 60.4002 55.904 60.4656C55.848 60.5216 55.7733 60.5496 55.68 60.5496H54.98ZM66.0882 60.6896C65.0896 60.6896 64.3056 60.4096 63.7362 59.8496C63.1762 59.2802 62.8776 58.4869 62.8402 57.4696L62.8262 56.9096L62.8402 56.3496C62.8776 55.3322 63.1762 54.5436 63.7362 53.9836C64.3056 53.4142 65.0896 53.1296 66.0882 53.1296C66.7602 53.1296 67.3296 53.2509 67.7962 53.4936C68.2629 53.7362 68.6082 54.0349 68.8322 54.3896C69.0656 54.7442 69.1916 55.0989 69.2102 55.4536C69.2196 55.5469 69.1916 55.6216 69.1262 55.6776C69.0609 55.7336 68.9816 55.7616 68.8882 55.7616H68.2162C68.1229 55.7616 68.0529 55.7429 68.0062 55.7056C67.9596 55.6682 67.9129 55.5936 67.8662 55.4816C67.7076 55.0336 67.4836 54.7162 67.1942 54.5296C66.9049 54.3336 66.5409 54.2356 66.1022 54.2356C65.5236 54.2356 65.0616 54.4176 64.7162 54.7816C64.3802 55.1362 64.1982 55.6822 64.1702 56.4196L64.1562 56.9236L64.1702 57.3996C64.1982 58.1462 64.3802 58.6969 64.7162 59.0516C65.0522 59.4062 65.5142 59.5836 66.1022 59.5836C66.5409 59.5836 66.9049 59.4902 67.1942 59.3036C67.4836 59.1076 67.7076 58.7856 67.8662 58.3376C67.9129 58.2256 67.9596 58.1509 68.0062 58.1136C68.0529 58.0669 68.1229 58.0436 68.2162 58.0436H68.8882C68.9816 58.0436 69.0609 58.0762 69.1262 58.1416C69.1916 58.1976 69.2196 58.2722 69.2102 58.3656C69.1916 58.7109 69.0656 59.0656 68.8322 59.4296C68.6082 59.7842 68.2629 60.0829 67.7962 60.3256C67.3389 60.5682 66.7696 60.6896 66.0882 60.6896ZM71.1949 60.5496C71.1015 60.5496 71.0222 60.5216 70.9569 60.4656C70.9009 60.4002 70.8729 60.3209 70.8729 60.2276V53.6056C70.8729 53.5122 70.9009 53.4329 70.9569 53.3676C71.0222 53.3022 71.1015 53.2696 71.1949 53.2696H71.8389C71.9322 53.2696 72.0115 53.3022 72.0769 53.3676C72.1422 53.4329 72.1749 53.5122 72.1749 53.6056V54.2216C72.5575 53.5869 73.2109 53.2696 74.1349 53.2696H74.6809C74.7742 53.2696 74.8489 53.3022 74.9049 53.3676C74.9702 53.4236 75.0029 53.4982 75.0029 53.5916V54.1656C75.0029 54.2589 74.9702 54.3336 74.9049 54.3896C74.8489 54.4456 74.7742 54.4736 74.6809 54.4736H73.8409C73.3369 54.4736 72.9402 54.6229 72.6509 54.9216C72.3615 55.2109 72.2169 55.6076 72.2169 56.1116V60.2276C72.2169 60.3209 72.1842 60.4002 72.1189 60.4656C72.0535 60.5216 71.9742 60.5496 71.8809 60.5496H71.1949ZM77.4652 63.2096C77.3905 63.2096 77.3252 63.1816 77.2692 63.1256C77.2132 63.0696 77.1852 63.0042 77.1852 62.9296C77.1852 62.8642 77.2085 62.7802 77.2552 62.6776L78.3332 60.1156L75.6592 53.8016C75.6125 53.6802 75.5892 53.6009 75.5892 53.5636C75.5892 53.4796 75.6172 53.4096 75.6732 53.3536C75.7292 53.2976 75.7992 53.2696 75.8832 53.2696H76.5692C76.7185 53.2696 76.8305 53.3489 76.9052 53.5076L79.0332 58.6036L81.2172 53.5076C81.2919 53.3489 81.4085 53.2696 81.5672 53.2696H82.2252C82.3092 53.2696 82.3792 53.2976 82.4352 53.3536C82.4912 53.4096 82.5192 53.4749 82.5192 53.5496C82.5192 53.5776 82.4959 53.6616 82.4492 53.8016L78.4732 62.9716C78.3985 63.1302 78.2819 63.2096 78.1232 63.2096H77.4652ZM84.2518 63.2096C84.1585 63.2096 84.0792 63.1769 84.0138 63.1116C83.9578 63.0556 83.9298 62.9809 83.9298 62.8876V53.5916C83.9298 53.4982 83.9578 53.4236 84.0138 53.3676C84.0792 53.3022 84.1585 53.2696 84.2518 53.2696H84.8958C84.9892 53.2696 85.0638 53.3022 85.1198 53.3676C85.1852 53.4236 85.2178 53.4982 85.2178 53.5916V54.2076C85.7405 53.4889 86.5058 53.1296 87.5138 53.1296C88.4938 53.1296 89.2265 53.4376 89.7118 54.0536C90.2065 54.6696 90.4725 55.4629 90.5098 56.4336C90.5192 56.5362 90.5238 56.6949 90.5238 56.9096C90.5238 57.1242 90.5192 57.2829 90.5098 57.3856C90.4725 58.3469 90.2065 59.1402 89.7118 59.7656C89.2172 60.3816 88.4845 60.6896 87.5138 60.6896C86.5432 60.6896 85.7872 60.3396 85.2458 59.6396V62.8876C85.2458 62.9809 85.2178 63.0556 85.1618 63.1116C85.1058 63.1769 85.0312 63.2096 84.9378 63.2096H84.2518ZM87.2198 59.5556C87.8825 59.5556 88.3632 59.3502 88.6618 58.9396C88.9698 58.5289 89.1378 57.9876 89.1658 57.3156C89.1752 57.2222 89.1798 57.0869 89.1798 56.9096C89.1798 55.1456 88.5265 54.2636 87.2198 54.2636C86.5758 54.2636 86.0905 54.4782 85.7638 54.9076C85.4465 55.3276 85.2738 55.8316 85.2458 56.4196L85.2318 56.9516L85.2458 57.4976C85.2645 58.0482 85.4418 58.5289 85.7778 58.9396C86.1138 59.3502 86.5945 59.5556 87.2198 59.5556ZM95.0156 60.5496C93.541 60.5496 92.8036 59.7282 92.8036 58.0856V54.3896H91.7116C91.6183 54.3896 91.539 54.3616 91.4736 54.3056C91.4176 54.2402 91.3896 54.1609 91.3896 54.0676V53.5916C91.3896 53.4982 91.4176 53.4236 91.4736 53.3676C91.539 53.3022 91.6183 53.2696 91.7116 53.2696H92.8036V50.9316C92.8036 50.8382 92.8316 50.7636 92.8876 50.7076C92.953 50.6422 93.0323 50.6096 93.1256 50.6096H93.7836C93.877 50.6096 93.9516 50.6422 94.0076 50.7076C94.073 50.7636 94.1056 50.8382 94.1056 50.9316V53.2696H95.8416C95.935 53.2696 96.0096 53.3022 96.0656 53.3676C96.131 53.4236 96.1636 53.4982 96.1636 53.5916V54.0676C96.1636 54.1609 96.131 54.2402 96.0656 54.3056C96.0096 54.3616 95.935 54.3896 95.8416 54.3896H94.1056V57.9876C94.1056 58.4542 94.185 58.8089 94.3436 59.0516C94.5023 59.2849 94.7636 59.4016 95.1276 59.4016H95.9816C96.075 59.4016 96.1496 59.4342 96.2056 59.4996C96.271 59.5556 96.3036 59.6302 96.3036 59.7236V60.2276C96.3036 60.3209 96.271 60.4002 96.2056 60.4656C96.1496 60.5216 96.075 60.5496 95.9816 60.5496H95.0156ZM100.554 60.6896C99.5931 60.6896 98.8231 60.3956 98.2444 59.8076C97.6751 59.2102 97.3624 58.3982 97.3064 57.3716L97.2924 56.8956L97.3064 56.4336C97.3717 55.4256 97.6891 54.6229 98.2584 54.0256C98.8371 53.4282 99.5977 53.1296 100.54 53.1296C101.576 53.1296 102.379 53.4609 102.948 54.1236C103.518 54.7769 103.802 55.6636 103.802 56.7836V57.0216C103.802 57.1149 103.77 57.1942 103.704 57.2596C103.648 57.3156 103.574 57.3436 103.48 57.3436H98.6364V57.4696C98.6644 58.0762 98.8464 58.5942 99.1824 59.0236C99.5277 59.4436 99.9804 59.6536 100.54 59.6536C100.97 59.6536 101.32 59.5696 101.59 59.4016C101.87 59.2242 102.076 59.0422 102.206 58.8556C102.29 58.7436 102.351 58.6782 102.388 58.6596C102.435 58.6316 102.514 58.6176 102.626 58.6176H103.312C103.396 58.6176 103.466 58.6409 103.522 58.6876C103.578 58.7342 103.606 58.7996 103.606 58.8836C103.606 59.0889 103.476 59.3362 103.214 59.6256C102.962 59.9149 102.603 60.1669 102.136 60.3816C101.679 60.5869 101.152 60.6896 100.554 60.6896ZM102.472 56.3776V56.3356C102.472 55.6916 102.295 55.1689 101.94 54.7676C101.595 54.3569 101.128 54.1516 100.54 54.1516C99.9524 54.1516 99.4857 54.3569 99.1404 54.7676C98.8044 55.1689 98.6364 55.6916 98.6364 56.3356V56.3776H102.472ZM108.136 60.6896C107.166 60.6896 106.433 60.3722 105.938 59.7376C105.444 59.1029 105.182 58.3002 105.154 57.3296L105.14 56.9096L105.154 56.4896C105.182 55.5282 105.444 54.7302 105.938 54.0956C106.433 53.4516 107.166 53.1296 108.136 53.1296C109.098 53.1296 109.854 53.4702 110.404 54.1516V50.9316C110.404 50.8382 110.432 50.7636 110.488 50.7076C110.554 50.6422 110.633 50.6096 110.726 50.6096H111.398C111.492 50.6096 111.566 50.6422 111.622 50.7076C111.688 50.7636 111.72 50.8382 111.72 50.9316V60.2276C111.72 60.3209 111.688 60.4002 111.622 60.4656C111.566 60.5216 111.492 60.5496 111.398 60.5496H110.768C110.675 60.5496 110.596 60.5216 110.53 60.4656C110.474 60.4002 110.446 60.3209 110.446 60.2276V59.6396C109.905 60.3396 109.135 60.6896 108.136 60.6896ZM108.43 59.5556C109.074 59.5556 109.555 59.3456 109.872 58.9256C110.199 58.4962 110.376 57.9876 110.404 57.3996C110.414 57.2969 110.418 57.1196 110.418 56.8676C110.418 56.6062 110.414 56.4242 110.404 56.3216C110.386 55.7709 110.208 55.2902 109.872 54.8796C109.536 54.4689 109.056 54.2636 108.43 54.2636C107.768 54.2636 107.282 54.4689 106.974 54.8796C106.676 55.2902 106.512 55.8316 106.484 56.5036L106.47 56.9096C106.47 58.6736 107.124 59.5556 108.43 59.5556ZM120.944 60.6896C119.694 60.6896 118.742 60.3536 118.088 59.6816C117.444 59.0096 117.099 58.0809 117.052 56.8956C117.043 56.6436 117.038 56.2329 117.038 55.6636C117.038 55.0849 117.043 54.6649 117.052 54.4036C117.099 53.2276 117.449 52.3036 118.102 51.6316C118.756 50.9502 119.703 50.6096 120.944 50.6096C121.775 50.6096 122.48 50.7589 123.058 51.0576C123.637 51.3469 124.076 51.7296 124.374 52.2056C124.673 52.6816 124.836 53.1902 124.864 53.7316V53.7596C124.864 53.8342 124.832 53.8996 124.766 53.9556C124.71 54.0022 124.645 54.0256 124.57 54.0256H123.8C123.614 54.0256 123.497 53.9182 123.45 53.7036C123.292 53.0036 123.007 52.5136 122.596 52.2336C122.186 51.9442 121.635 51.7996 120.944 51.7996C119.339 51.7996 118.508 52.6909 118.452 54.4736C118.443 54.7256 118.438 55.1129 118.438 55.6356C118.438 56.1582 118.443 56.5549 118.452 56.8256C118.508 58.6082 119.339 59.4996 120.944 59.4996C121.635 59.4996 122.186 59.3596 122.596 59.0796C123.016 58.7902 123.301 58.2956 123.45 57.5956C123.478 57.4742 123.52 57.3902 123.576 57.3436C123.632 57.2969 123.707 57.2736 123.8 57.2736H124.57C124.654 57.2736 124.724 57.3016 124.78 57.3576C124.846 57.4042 124.874 57.4696 124.864 57.5536C124.836 58.1042 124.673 58.6176 124.374 59.0936C124.076 59.5696 123.637 59.9569 123.058 60.2556C122.48 60.5449 121.775 60.6896 120.944 60.6896ZM129.54 60.6896C128.514 60.6896 127.716 60.4002 127.146 59.8216C126.586 59.2429 126.288 58.4729 126.25 57.5116L126.236 56.9096L126.25 56.3076C126.288 55.3556 126.591 54.5902 127.16 54.0116C127.73 53.4236 128.523 53.1296 129.54 53.1296C130.558 53.1296 131.351 53.4236 131.92 54.0116C132.49 54.5902 132.793 55.3556 132.83 56.3076C132.84 56.4102 132.844 56.6109 132.844 56.9096C132.844 57.2082 132.84 57.4089 132.83 57.5116C132.793 58.4729 132.49 59.2429 131.92 59.8216C131.36 60.4002 130.567 60.6896 129.54 60.6896ZM129.54 59.6116C130.128 59.6116 130.59 59.4249 130.926 59.0516C131.272 58.6782 131.458 58.1416 131.486 57.4416C131.496 57.3482 131.5 57.1709 131.5 56.9096C131.5 56.6482 131.496 56.4709 131.486 56.3776C131.458 55.6776 131.272 55.1409 130.926 54.7676C130.59 54.3942 130.128 54.2076 129.54 54.2076C128.952 54.2076 128.486 54.3942 128.14 54.7676C127.795 55.1409 127.613 55.6776 127.594 56.3776L127.58 56.9096L127.594 57.4416C127.613 58.1416 127.795 58.6782 128.14 59.0516C128.486 59.4249 128.952 59.6116 129.54 59.6116ZM134.919 60.5496C134.826 60.5496 134.747 60.5216 134.681 60.4656C134.625 60.4002 134.597 60.3209 134.597 60.2276V53.5916C134.597 53.4982 134.625 53.4236 134.681 53.3676C134.747 53.3022 134.826 53.2696 134.919 53.2696H135.577C135.671 53.2696 135.745 53.3022 135.801 53.3676C135.867 53.4236 135.899 53.4982 135.899 53.5916V54.2076C136.17 53.8622 136.487 53.5962 136.851 53.4096C137.225 53.2229 137.687 53.1296 138.237 53.1296C139.133 53.1296 139.829 53.4189 140.323 53.9976C140.827 54.5669 141.079 55.3276 141.079 56.2796V60.2276C141.079 60.3209 141.047 60.4002 140.981 60.4656C140.925 60.5216 140.851 60.5496 140.757 60.5496H140.057C139.964 60.5496 139.885 60.5216 139.819 60.4656C139.763 60.4002 139.735 60.3209 139.735 60.2276V56.3496C139.735 55.6869 139.572 55.1736 139.245 54.8096C138.928 54.4456 138.466 54.2636 137.859 54.2636C137.271 54.2636 136.805 54.4502 136.459 54.8236C136.114 55.1876 135.941 55.6962 135.941 56.3496V60.2276C135.941 60.3209 135.909 60.4002 135.843 60.4656C135.787 60.5216 135.713 60.5496 135.619 60.5496H134.919ZM143.41 60.5496C143.316 60.5496 143.237 60.5216 143.172 60.4656C143.116 60.4002 143.088 60.3209 143.088 60.2276V53.5916C143.088 53.4982 143.116 53.4236 143.172 53.3676C143.237 53.3022 143.316 53.2696 143.41 53.2696H144.068C144.161 53.2696 144.236 53.3022 144.292 53.3676C144.357 53.4236 144.39 53.4982 144.39 53.5916V54.2076C144.66 53.8622 144.978 53.5962 145.342 53.4096C145.715 53.2229 146.177 53.1296 146.728 53.1296C147.624 53.1296 148.319 53.4189 148.814 53.9976C149.318 54.5669 149.57 55.3276 149.57 56.2796V60.2276C149.57 60.3209 149.537 60.4002 149.472 60.4656C149.416 60.5216 149.341 60.5496 149.248 60.5496H148.548C148.454 60.5496 148.375 60.5216 148.31 60.4656C148.254 60.4002 148.226 60.3209 148.226 60.2276V56.3496C148.226 55.6869 148.062 55.1736 147.736 54.8096C147.418 54.4456 146.956 54.2636 146.35 54.2636C145.762 54.2636 145.295 54.4502 144.95 54.8236C144.604 55.1876 144.432 55.6962 144.432 56.3496V60.2276C144.432 60.3209 144.399 60.4002 144.334 60.4656C144.278 60.5216 144.203 60.5496 144.11 60.5496H143.41ZM154.49 60.6896C153.529 60.6896 152.759 60.3956 152.18 59.8076C151.611 59.2102 151.298 58.3982 151.242 57.3716L151.228 56.8956L151.242 56.4336C151.307 55.4256 151.625 54.6229 152.194 54.0256C152.773 53.4282 153.533 53.1296 154.476 53.1296C155.512 53.1296 156.315 53.4609 156.884 54.1236C157.453 54.7769 157.738 55.6636 157.738 56.7836V57.0216C157.738 57.1149 157.705 57.1942 157.64 57.2596C157.584 57.3156 157.509 57.3436 157.416 57.3436H152.572V57.4696C152.6 58.0762 152.782 58.5942 153.118 59.0236C153.463 59.4436 153.916 59.6536 154.476 59.6536C154.905 59.6536 155.255 59.5696 155.526 59.4016C155.806 59.2242 156.011 59.0422 156.142 58.8556C156.226 58.7436 156.287 58.6782 156.324 58.6596C156.371 58.6316 156.45 58.6176 156.562 58.6176H157.248C157.332 58.6176 157.402 58.6409 157.458 58.6876C157.514 58.7342 157.542 58.7996 157.542 58.8836C157.542 59.0889 157.411 59.3362 157.15 59.6256C156.898 59.9149 156.539 60.1669 156.072 60.3816C155.615 60.5869 155.087 60.6896 154.49 60.6896ZM156.408 56.3776V56.3356C156.408 55.6916 156.231 55.1689 155.876 54.7676C155.531 54.3569 155.064 54.1516 154.476 54.1516C153.888 54.1516 153.421 54.3569 153.076 54.7676C152.74 55.1689 152.572 55.6916 152.572 56.3356V56.3776H156.408ZM162.352 60.6896C161.353 60.6896 160.569 60.4096 160 59.8496C159.44 59.2802 159.141 58.4869 159.104 57.4696L159.09 56.9096L159.104 56.3496C159.141 55.3322 159.44 54.5436 160 53.9836C160.569 53.4142 161.353 53.1296 162.352 53.1296C163.024 53.1296 163.593 53.2509 164.06 53.4936C164.527 53.7362 164.872 54.0349 165.096 54.3896C165.329 54.7442 165.455 55.0989 165.474 55.4536C165.483 55.5469 165.455 55.6216 165.39 55.6776C165.325 55.7336 165.245 55.7616 165.152 55.7616H164.48C164.387 55.7616 164.317 55.7429 164.27 55.7056C164.223 55.6682 164.177 55.5936 164.13 55.4816C163.971 55.0336 163.747 54.7162 163.458 54.5296C163.169 54.3336 162.805 54.2356 162.366 54.2356C161.787 54.2356 161.325 54.4176 160.98 54.7816C160.644 55.1362 160.462 55.6822 160.434 56.4196L160.42 56.9236L160.434 57.3996C160.462 58.1462 160.644 58.6969 160.98 59.0516C161.316 59.4062 161.778 59.5836 162.366 59.5836C162.805 59.5836 163.169 59.4902 163.458 59.3036C163.747 59.1076 163.971 58.7856 164.13 58.3376C164.177 58.2256 164.223 58.1509 164.27 58.1136C164.317 58.0669 164.387 58.0436 164.48 58.0436H165.152C165.245 58.0436 165.325 58.0762 165.39 58.1416C165.455 58.1976 165.483 58.2722 165.474 58.3656C165.455 58.7109 165.329 59.0656 165.096 59.4296C164.872 59.7842 164.527 60.0829 164.06 60.3256C163.603 60.5682 163.033 60.6896 162.352 60.6896ZM169.979 60.5496C168.504 60.5496 167.767 59.7282 167.767 58.0856V54.3896H166.675C166.581 54.3896 166.502 54.3616 166.437 54.3056C166.381 54.2402 166.353 54.1609 166.353 54.0676V53.5916C166.353 53.4982 166.381 53.4236 166.437 53.3676C166.502 53.3022 166.581 53.2696 166.675 53.2696H167.767V50.9316C167.767 50.8382 167.795 50.7636 167.851 50.7076C167.916 50.6422 167.995 50.6096 168.089 50.6096H168.747C168.84 50.6096 168.915 50.6422 168.971 50.7076C169.036 50.7636 169.069 50.8382 169.069 50.9316V53.2696H170.805C170.898 53.2696 170.973 53.3022 171.029 53.3676C171.094 53.4236 171.127 53.4982 171.127 53.5916V54.0676C171.127 54.1609 171.094 54.2402 171.029 54.3056C170.973 54.3616 170.898 54.3896 170.805 54.3896H169.069V57.9876C169.069 58.4542 169.148 58.8089 169.307 59.0516C169.465 59.2849 169.727 59.4016 170.091 59.4016H170.945C171.038 59.4016 171.113 59.4342 171.169 59.4996C171.234 59.5556 171.267 59.6302 171.267 59.7236V60.2276C171.267 60.3209 171.234 60.4002 171.169 60.4656C171.113 60.5216 171.038 60.5496 170.945 60.5496H169.979ZM172.815 51.9116C172.722 51.9116 172.643 51.8836 172.577 51.8276C172.521 51.7622 172.493 51.6829 172.493 51.5896V50.8336C172.493 50.7402 172.521 50.6609 172.577 50.5956C172.643 50.5302 172.722 50.4976 172.815 50.4976H173.697C173.791 50.4976 173.87 50.5302 173.935 50.5956C174.001 50.6609 174.033 50.7402 174.033 50.8336V51.5896C174.033 51.6829 174.001 51.7622 173.935 51.8276C173.87 51.8836 173.791 51.9116 173.697 51.9116H172.815ZM172.927 60.5496C172.834 60.5496 172.755 60.5216 172.689 60.4656C172.633 60.4002 172.605 60.3209 172.605 60.2276V53.5916C172.605 53.4982 172.633 53.4236 172.689 53.3676C172.755 53.3022 172.834 53.2696 172.927 53.2696H173.599C173.693 53.2696 173.767 53.3022 173.823 53.3676C173.889 53.4236 173.921 53.4982 173.921 53.5916V60.2276C173.921 60.3209 173.889 60.4002 173.823 60.4656C173.767 60.5216 173.693 60.5496 173.599 60.5496H172.927ZM178.978 60.6896C177.951 60.6896 177.153 60.4002 176.584 59.8216C176.024 59.2429 175.725 58.4729 175.688 57.5116L175.674 56.9096L175.688 56.3076C175.725 55.3556 176.029 54.5902 176.598 54.0116C177.167 53.4236 177.961 53.1296 178.978 53.1296C179.995 53.1296 180.789 53.4236 181.358 54.0116C181.927 54.5902 182.231 55.3556 182.268 56.3076C182.277 56.4102 182.282 56.6109 182.282 56.9096C182.282 57.2082 182.277 57.4089 182.268 57.5116C182.231 58.4729 181.927 59.2429 181.358 59.8216C180.798 60.4002 180.005 60.6896 178.978 60.6896ZM178.978 59.6116C179.566 59.6116 180.028 59.4249 180.364 59.0516C180.709 58.6782 180.896 58.1416 180.924 57.4416C180.933 57.3482 180.938 57.1709 180.938 56.9096C180.938 56.6482 180.933 56.4709 180.924 56.3776C180.896 55.6776 180.709 55.1409 180.364 54.7676C180.028 54.3942 179.566 54.2076 178.978 54.2076C178.39 54.2076 177.923 54.3942 177.578 54.7676C177.233 55.1409 177.051 55.6776 177.032 56.3776L177.018 56.9096L177.032 57.4416C177.051 58.1416 177.233 58.6782 177.578 59.0516C177.923 59.4249 178.39 59.6116 178.978 59.6116ZM184.357 60.5496C184.264 60.5496 184.184 60.5216 184.119 60.4656C184.063 60.4002 184.035 60.3209 184.035 60.2276V53.5916C184.035 53.4982 184.063 53.4236 184.119 53.3676C184.184 53.3022 184.264 53.2696 184.357 53.2696H185.015C185.108 53.2696 185.183 53.3022 185.239 53.3676C185.304 53.4236 185.337 53.4982 185.337 53.5916V54.2076C185.608 53.8622 185.925 53.5962 186.289 53.4096C186.662 53.2229 187.124 53.1296 187.675 53.1296C188.571 53.1296 189.266 53.4189 189.761 53.9976C190.265 54.5669 190.517 55.3276 190.517 56.2796V60.2276C190.517 60.3209 190.484 60.4002 190.419 60.4656C190.363 60.5216 190.288 60.5496 190.195 60.5496H189.495C189.402 60.5496 189.322 60.5216 189.257 60.4656C189.201 60.4002 189.173 60.3209 189.173 60.2276V56.3496C189.173 55.6869 189.01 55.1736 188.683 54.8096C188.366 54.4456 187.904 54.2636 187.297 54.2636C186.709 54.2636 186.242 54.4502 185.897 54.8236C185.552 55.1876 185.379 55.6962 185.379 56.3496V60.2276C185.379 60.3209 185.346 60.4002 185.281 60.4656C185.225 60.5216 185.15 60.5496 185.057 60.5496H184.357Z" fill="#4F5665"/>
<path d="M11.3797 60.2796C11.2485 60.2798 11.1184 60.2542 10.9971 60.2041C10.8758 60.154 10.7655 60.0804 10.6727 59.9876L6.43073 55.7446C6.33515 55.6524 6.25889 55.5421 6.2064 55.4201C6.15391 55.2982 6.12623 55.167 6.12498 55.0342C6.12374 54.9014 6.14895 54.7697 6.19914 54.6468C6.24933 54.5239 6.32351 54.4122 6.41733 54.3182C6.51116 54.2242 6.62276 54.1499 6.74562 54.0995C6.86847 54.0492 7.00013 54.0238 7.13291 54.0248C7.26569 54.0259 7.39693 54.0534 7.51897 54.1057C7.64101 54.158 7.75141 54.2341 7.84373 54.3296L11.3787 57.8646L17.7437 51.5016C17.9312 51.3139 18.1856 51.2085 18.4509 51.2084C18.7161 51.2083 18.9706 51.3136 19.1582 51.5011C19.3459 51.6886 19.4513 51.943 19.4514 52.2082C19.4515 52.4735 19.3462 52.7279 19.1587 52.9156L12.0867 59.9876C11.9939 60.0804 11.8837 60.154 11.7623 60.2041C11.641 60.2542 11.511 60.2798 11.3797 60.2796Z" fill="#2FAB73"/>
<path d="M11.6178 100.28C11.4865 100.28 11.3565 100.254 11.2351 100.204C11.1138 100.154 11.0036 100.08 10.9108 99.9876L6.66876 95.7446C6.57319 95.6524 6.49693 95.5421 6.44444 95.4201C6.39194 95.2982 6.36427 95.167 6.36302 95.0342C6.36177 94.9014 6.38698 94.7697 6.43718 94.6468C6.48737 94.5239 6.56154 94.4122 6.65537 94.3182C6.74919 94.2242 6.86079 94.1499 6.98365 94.0995C7.10651 94.0492 7.23817 94.0238 7.37095 94.0248C7.50373 94.0259 7.63497 94.0534 7.75701 94.1057C7.87905 94.158 7.98945 94.2341 8.08176 94.3296L11.6168 97.8646L17.9818 91.5016C18.1693 91.3139 18.4236 91.2085 18.6889 91.2084C18.9542 91.2083 19.2086 91.3136 19.3963 91.5011C19.5839 91.6886 19.6894 91.943 19.6895 92.2082C19.6896 92.4735 19.5843 92.7279 19.3968 92.9156L12.3248 99.9876C12.2319 100.08 12.1217 100.154 12.0004 100.204C11.8791 100.254 11.749 100.28 11.6178 100.28Z" fill="#2FAB73"/>
<path d="M46.6718 100.55C46.5784 100.55 46.4991 100.522 46.4338 100.466C46.3778 100.4 46.3498 100.321 46.3498 100.228V91.0856C46.3498 90.9829 46.3778 90.9036 46.4338 90.8476C46.4991 90.7822 46.5784 90.7496 46.6718 90.7496H47.3158C47.4838 90.7496 47.6004 90.8149 47.6658 90.9456L52.3138 98.0856V91.0856C52.3138 90.9829 52.3418 90.9036 52.3978 90.8476C52.4631 90.7822 52.5424 90.7496 52.6358 90.7496H53.3078C53.4104 90.7496 53.4898 90.7822 53.5458 90.8476C53.6111 90.9036 53.6438 90.9829 53.6438 91.0856V100.214C53.6438 100.307 53.6111 100.386 53.5458 100.452C53.4898 100.517 53.4151 100.55 53.3218 100.55H52.6498C52.5098 100.55 52.3978 100.484 52.3138 100.354L47.6798 93.2836V100.228C47.6798 100.321 47.6471 100.4 47.5818 100.466C47.5164 100.522 47.4371 100.55 47.3438 100.55H46.6718ZM58.8841 100.69C57.8575 100.69 57.0595 100.4 56.4901 99.8216C55.9301 99.2429 55.6315 98.4729 55.5941 97.5116L55.5801 96.9096L55.5941 96.3076C55.6315 95.3556 55.9348 94.5902 56.5041 94.0116C57.0735 93.4236 57.8668 93.1296 58.8841 93.1296C59.9015 93.1296 60.6948 93.4236 61.2642 94.0116C61.8335 94.5902 62.1368 95.3556 62.1742 96.3076C62.1835 96.4102 62.1881 96.6109 62.1881 96.9096C62.1881 97.2082 62.1835 97.4089 62.1742 97.5116C62.1368 98.4729 61.8335 99.2429 61.2642 99.8216C60.7042 100.4 59.9108 100.69 58.8841 100.69ZM58.8841 99.6116C59.4722 99.6116 59.9342 99.4249 60.2702 99.0516C60.6155 98.6782 60.8022 98.1416 60.8302 97.4416C60.8395 97.3482 60.8442 97.1709 60.8442 96.9096C60.8442 96.6482 60.8395 96.4709 60.8302 96.3776C60.8022 95.6776 60.6155 95.1409 60.2702 94.7676C59.9342 94.3942 59.4722 94.2076 58.8841 94.2076C58.2961 94.2076 57.8295 94.3942 57.4841 94.7676C57.1388 95.1409 56.9568 95.6776 56.9381 96.3776L56.9241 96.9096L56.9381 97.4416C56.9568 98.1416 57.1388 98.6782 57.4841 99.0516C57.8295 99.4249 58.2961 99.6116 58.8841 99.6116ZM69.6634 100.55C69.5701 100.55 69.4907 100.522 69.4254 100.466C69.3694 100.4 69.3414 100.321 69.3414 100.228V91.9956H66.6534C66.5601 91.9956 66.4807 91.9676 66.4154 91.9116C66.3594 91.8462 66.3314 91.7669 66.3314 91.6736V91.0856C66.3314 90.9922 66.3594 90.9129 66.4154 90.8476C66.4807 90.7822 66.5601 90.7496 66.6534 90.7496H73.4014C73.5041 90.7496 73.5834 90.7822 73.6394 90.8476C73.7047 90.9036 73.7374 90.9829 73.7374 91.0856V91.6736C73.7374 91.7669 73.7047 91.8462 73.6394 91.9116C73.5741 91.9676 73.4947 91.9956 73.4014 91.9956H70.7274V100.228C70.7274 100.321 70.6947 100.4 70.6294 100.466C70.5641 100.522 70.4847 100.55 70.3914 100.55H69.6634ZM74.312 100.55C74.2187 100.55 74.1394 100.522 74.074 100.466C74.018 100.4 73.99 100.321 73.99 100.228V93.6056C73.99 93.5122 74.018 93.4329 74.074 93.3676C74.1394 93.3022 74.2187 93.2696 74.312 93.2696H74.956C75.0494 93.2696 75.1287 93.3022 75.194 93.3676C75.2594 93.4329 75.292 93.5122 75.292 93.6056V94.2216C75.6747 93.5869 76.328 93.2696 77.252 93.2696H77.798C77.8914 93.2696 77.966 93.3022 78.022 93.3676C78.0874 93.4236 78.12 93.4982 78.12 93.5916V94.1656C78.12 94.2589 78.0874 94.3336 78.022 94.3896C77.966 94.4456 77.8914 94.4736 77.798 94.4736H76.958C76.454 94.4736 76.0574 94.6229 75.768 94.9216C75.4787 95.2109 75.334 95.6076 75.334 96.1116V100.228C75.334 100.321 75.3014 100.4 75.236 100.466C75.1707 100.522 75.0914 100.55 74.998 100.55H74.312ZM81.229 100.69C80.7717 100.69 80.347 100.596 79.955 100.41C79.563 100.223 79.2504 99.9709 79.017 99.6536C78.793 99.3269 78.681 98.9676 78.681 98.5756C78.681 97.9596 78.933 97.4556 79.437 97.0636C79.9504 96.6622 80.641 96.4009 81.509 96.2796L83.595 95.9856V95.5796C83.595 94.6276 83.049 94.1516 81.957 94.1516C81.5464 94.1516 81.2104 94.2402 80.949 94.4176C80.6877 94.5856 80.4917 94.7862 80.361 95.0196C80.333 95.1036 80.2957 95.1642 80.249 95.2016C80.2117 95.2389 80.1557 95.2576 80.081 95.2576H79.479C79.395 95.2576 79.3204 95.2296 79.255 95.1736C79.199 95.1082 79.171 95.0336 79.171 94.9496C79.1804 94.7256 79.283 94.4736 79.479 94.1936C79.6844 93.9042 79.997 93.6569 80.417 93.4516C80.837 93.2369 81.355 93.1296 81.971 93.1296C83.0164 93.1296 83.7677 93.3769 84.225 93.8716C84.6824 94.3569 84.911 94.9636 84.911 95.6916V100.228C84.911 100.321 84.8784 100.4 84.813 100.466C84.757 100.522 84.6824 100.55 84.589 100.55H83.945C83.8517 100.55 83.7724 100.522 83.707 100.466C83.651 100.4 83.623 100.321 83.623 100.228V99.6256C83.4177 99.9242 83.119 100.176 82.727 100.382C82.335 100.587 81.8357 100.69 81.229 100.69ZM81.523 99.6396C82.1297 99.6396 82.6244 99.4436 83.007 99.0516C83.399 98.6502 83.595 98.0762 83.595 97.3296V96.9376L81.971 97.1756C81.3084 97.2689 80.809 97.4276 80.473 97.6516C80.137 97.8662 79.969 98.1416 79.969 98.4776C79.969 98.8509 80.123 99.1402 80.431 99.3456C80.739 99.5416 81.103 99.6396 81.523 99.6396ZM87.9053 100.55C87.8119 100.55 87.7326 100.522 87.6673 100.466C87.6113 100.4 87.5833 100.321 87.5833 100.228V94.3896H86.3933C86.2999 94.3896 86.2206 94.3616 86.1553 94.3056C86.0993 94.2402 86.0713 94.1609 86.0713 94.0676V93.5916C86.0713 93.4982 86.0993 93.4236 86.1553 93.3676C86.2206 93.3022 86.2999 93.2696 86.3933 93.2696H87.5833V92.5696C87.5833 90.9829 88.3859 90.1896 89.9913 90.1896H90.8313C90.9246 90.1896 90.9993 90.2222 91.0553 90.2876C91.1206 90.3436 91.1533 90.4182 91.1533 90.5116V90.9876C91.1533 91.0809 91.1206 91.1602 91.0553 91.2256C90.9993 91.2816 90.9246 91.3096 90.8313 91.3096H90.0193C89.5993 91.3096 89.3053 91.4216 89.1373 91.6456C88.9693 91.8602 88.8853 92.1916 88.8853 92.6396V93.2696H91.8813V92.5696C91.8813 91.8042 92.0679 91.2162 92.4413 90.8056C92.8239 90.3949 93.4353 90.1896 94.2753 90.1896H96.4453C96.5386 90.1896 96.6133 90.2222 96.6693 90.2876C96.7346 90.3436 96.7673 90.4182 96.7673 90.5116V90.9876C96.7673 91.0809 96.7346 91.1602 96.6693 91.2256C96.6133 91.2816 96.5386 91.3096 96.4453 91.3096H94.3173C93.8879 91.3096 93.5893 91.4216 93.4213 91.6456C93.2533 91.8602 93.1693 92.1916 93.1693 92.6396V93.2696H96.4453C96.5386 93.2696 96.6133 93.3022 96.6693 93.3676C96.7346 93.4236 96.7673 93.4982 96.7673 93.5916V100.228C96.7673 100.321 96.7346 100.4 96.6693 100.466C96.6133 100.522 96.5386 100.55 96.4453 100.55H95.7873C95.6939 100.55 95.6146 100.522 95.5493 100.466C95.4933 100.4 95.4653 100.321 95.4653 100.228V94.3896H93.1693V100.228C93.1693 100.321 93.1366 100.4 93.0713 100.466C93.0153 100.522 92.9406 100.55 92.8473 100.55H92.2033C92.1099 100.55 92.0306 100.522 91.9653 100.466C91.9093 100.4 91.8813 100.321 91.8813 100.228V94.3896H88.8853V100.228C88.8853 100.321 88.8526 100.4 88.7873 100.466C88.7313 100.522 88.6566 100.55 88.5633 100.55H87.9053ZM101.786 100.69C100.787 100.69 100.003 100.41 99.4335 99.8496C98.8735 99.2802 98.5748 98.4869 98.5375 97.4696L98.5235 96.9096L98.5375 96.3496C98.5748 95.3322 98.8735 94.5436 99.4335 93.9836C100.003 93.4142 100.787 93.1296 101.786 93.1296C102.458 93.1296 103.027 93.2509 103.494 93.4936C103.96 93.7362 104.306 94.0349 104.53 94.3896C104.763 94.7442 104.889 95.0989 104.908 95.4536C104.917 95.5469 104.889 95.6216 104.824 95.6776C104.758 95.7336 104.679 95.7616 104.586 95.7616H103.914C103.82 95.7616 103.75 95.7429 103.704 95.7056C103.657 95.6682 103.61 95.5936 103.564 95.4816C103.405 95.0336 103.181 94.7162 102.892 94.5296C102.602 94.3336 102.238 94.2356 101.8 94.2356C101.221 94.2356 100.759 94.4176 100.414 94.7816C100.078 95.1362 99.8955 95.6822 99.8675 96.4196L99.8535 96.9236L99.8675 97.3996C99.8955 98.1462 100.078 98.6969 100.414 99.0516C100.75 99.4062 101.212 99.5836 101.8 99.5836C102.238 99.5836 102.602 99.4902 102.892 99.3036C103.181 99.1076 103.405 98.7856 103.564 98.3376C103.61 98.2256 103.657 98.1509 103.704 98.1136C103.75 98.0669 103.82 98.0436 103.914 98.0436H104.586C104.679 98.0436 104.758 98.0762 104.824 98.1416C104.889 98.1976 104.917 98.2722 104.908 98.3656C104.889 98.7109 104.763 99.0656 104.53 99.4296C104.306 99.7842 103.96 100.083 103.494 100.326C103.036 100.568 102.467 100.69 101.786 100.69ZM110.506 100.55C110.412 100.55 110.333 100.522 110.268 100.466C110.212 100.4 110.184 100.321 110.184 100.228V91.0716C110.184 90.9782 110.212 90.9036 110.268 90.8476C110.333 90.7822 110.412 90.7496 110.506 90.7496H111.248C111.341 90.7496 111.416 90.7822 111.472 90.8476C111.537 90.9036 111.57 90.9782 111.57 91.0716V99.3316H116.218C116.32 99.3316 116.4 99.3642 116.456 99.4296C116.521 99.4856 116.554 99.5649 116.554 99.6676V100.228C116.554 100.321 116.521 100.4 116.456 100.466C116.39 100.522 116.311 100.55 116.218 100.55H110.506ZM120.722 100.69C119.695 100.69 118.897 100.4 118.328 99.8216C117.768 99.2429 117.469 98.4729 117.432 97.5116L117.418 96.9096L117.432 96.3076C117.469 95.3556 117.773 94.5902 118.342 94.0116C118.911 93.4236 119.705 93.1296 120.722 93.1296C121.739 93.1296 122.533 93.4236 123.102 94.0116C123.671 94.5902 123.975 95.3556 124.012 96.3076C124.021 96.4102 124.026 96.6109 124.026 96.9096C124.026 97.2082 124.021 97.4089 124.012 97.5116C123.975 98.4729 123.671 99.2429 123.102 99.8216C122.542 100.4 121.749 100.69 120.722 100.69ZM120.722 99.6116C121.31 99.6116 121.772 99.4249 122.108 99.0516C122.453 98.6782 122.64 98.1416 122.668 97.4416C122.677 97.3482 122.682 97.1709 122.682 96.9096C122.682 96.6482 122.677 96.4709 122.668 96.3776C122.64 95.6776 122.453 95.1409 122.108 94.7676C121.772 94.3942 121.31 94.2076 120.722 94.2076C120.134 94.2076 119.667 94.3942 119.322 94.7676C118.977 95.1409 118.795 95.6776 118.776 96.3776L118.762 96.9096L118.776 97.4416C118.795 98.1416 118.977 98.6782 119.322 99.0516C119.667 99.4249 120.134 99.6116 120.722 99.6116ZM128.761 103.63C127.996 103.63 127.38 103.499 126.913 103.238C126.446 102.986 126.115 102.696 125.919 102.37C125.723 102.043 125.616 101.749 125.597 101.488C125.588 101.394 125.616 101.315 125.681 101.25C125.756 101.184 125.835 101.152 125.919 101.152H126.591C126.675 101.152 126.745 101.17 126.801 101.208C126.857 101.254 126.904 101.334 126.941 101.446C127.053 101.744 127.235 102.001 127.487 102.216C127.748 102.44 128.15 102.552 128.691 102.552C129.382 102.552 129.89 102.402 130.217 102.104C130.544 101.814 130.707 101.296 130.707 100.55V99.5976C130.464 99.9056 130.156 100.153 129.783 100.34C129.41 100.517 128.966 100.606 128.453 100.606C127.464 100.606 126.722 100.293 126.227 99.6676C125.742 99.0329 125.485 98.2302 125.457 97.2596L125.443 96.8676L125.457 96.4896C125.485 95.5282 125.746 94.7302 126.241 94.0956C126.736 93.4516 127.473 93.1296 128.453 93.1296C129.433 93.1296 130.198 93.4889 130.749 94.2076V93.6056C130.749 93.5122 130.777 93.4329 130.833 93.3676C130.898 93.3022 130.978 93.2696 131.071 93.2696H131.715C131.808 93.2696 131.888 93.3022 131.953 93.3676C132.018 93.4329 132.051 93.5122 132.051 93.6056V100.396C132.051 102.552 130.954 103.63 128.761 103.63ZM128.733 99.4856C129.368 99.4856 129.848 99.2756 130.175 98.8556C130.502 98.4356 130.679 97.9362 130.707 97.3576C130.716 97.2736 130.721 97.1102 130.721 96.8676C130.721 96.6342 130.716 96.4756 130.707 96.3916C130.679 95.8129 130.502 95.3136 130.175 94.8936C129.858 94.4736 129.377 94.2636 128.733 94.2636C128.07 94.2636 127.59 94.4689 127.291 94.8796C126.992 95.2902 126.829 95.8316 126.801 96.5036L126.787 96.8676L126.801 97.2456C126.829 97.9082 126.992 98.4496 127.291 98.8696C127.59 99.2802 128.07 99.4856 128.733 99.4856ZM136.653 100.69C135.999 100.69 135.449 100.587 135.001 100.382C134.562 100.167 134.231 99.9242 134.007 99.6536C133.792 99.3829 133.685 99.1589 133.685 98.9816C133.685 98.8882 133.717 98.8182 133.783 98.7716C133.857 98.7156 133.932 98.6876 134.007 98.6876H134.637C134.73 98.6876 134.814 98.7342 134.889 98.8276C135.113 99.0889 135.355 99.2942 135.617 99.4436C135.878 99.5929 136.228 99.6676 136.667 99.6676C137.152 99.6676 137.544 99.5742 137.843 99.3876C138.151 99.1916 138.305 98.9256 138.305 98.5896C138.305 98.3656 138.239 98.1836 138.109 98.0436C137.987 97.8942 137.773 97.7682 137.465 97.6656C137.166 97.5536 136.718 97.4322 136.121 97.3016C135.309 97.1242 134.73 96.8676 134.385 96.5316C134.049 96.1956 133.881 95.7616 133.881 95.2296C133.881 94.8749 133.983 94.5389 134.189 94.2216C134.403 93.8949 134.711 93.6336 135.113 93.4376C135.523 93.2322 136.013 93.1296 136.583 93.1296C137.18 93.1296 137.689 93.2276 138.109 93.4236C138.529 93.6196 138.841 93.8529 139.047 94.1236C139.261 94.3849 139.369 94.6042 139.369 94.7816C139.369 94.8656 139.336 94.9356 139.271 94.9916C139.215 95.0476 139.145 95.0756 139.061 95.0756H138.473C138.361 95.0756 138.267 95.0289 138.193 94.9356C138.043 94.7582 137.913 94.6229 137.801 94.5296C137.698 94.4269 137.544 94.3382 137.339 94.2636C137.143 94.1889 136.891 94.1516 136.583 94.1516C136.135 94.1516 135.789 94.2496 135.547 94.4456C135.304 94.6322 135.183 94.8796 135.183 95.1876C135.183 95.3836 135.234 95.5516 135.337 95.6916C135.439 95.8222 135.635 95.9436 135.925 96.0556C136.223 96.1676 136.653 96.2842 137.213 96.4056C138.099 96.5922 138.725 96.8629 139.089 97.2176C139.462 97.5629 139.649 98.0062 139.649 98.5476C139.649 98.9489 139.532 99.3129 139.299 99.6396C139.065 99.9662 138.72 100.223 138.263 100.41C137.815 100.596 137.278 100.69 136.653 100.69Z" fill="#4F5665"/>
<path d="M11.3542 140.28C11.2229 140.28 11.0929 140.254 10.9716 140.204C10.8503 140.154 10.74 140.08 10.6472 139.988L6.40521 135.745C6.30964 135.652 6.23338 135.542 6.18089 135.42C6.12839 135.298 6.10072 135.167 6.09947 135.034C6.09822 134.901 6.12343 134.77 6.17363 134.647C6.22382 134.524 6.29799 134.412 6.39182 134.318C6.48565 134.224 6.59724 134.15 6.7201 134.1C6.84296 134.049 6.97462 134.024 7.1074 134.025C7.24018 134.026 7.37142 134.053 7.49346 134.106C7.6155 134.158 7.7259 134.234 7.81821 134.33L11.3532 137.865L17.7182 131.502C17.9057 131.314 18.1601 131.208 18.4254 131.208C18.6906 131.208 18.9451 131.314 19.1327 131.501C19.3204 131.689 19.4258 131.943 19.4259 132.208C19.426 132.473 19.3207 132.728 19.1332 132.916L12.0612 139.988C11.9684 140.08 11.8582 140.154 11.7368 140.204C11.6155 140.254 11.4855 140.28 11.3542 140.28Z" fill="#2FAB73"/>
<path d="M48.0018 140.55C47.7591 140.55 47.6144 140.424 47.5678 140.172L45.7618 131.184C45.7524 131.137 45.7478 131.086 45.7478 131.03C45.7478 130.955 45.7758 130.89 45.8318 130.834C45.8878 130.778 45.9531 130.75 46.0278 130.75H46.7558C46.9518 130.75 47.0638 130.829 47.0918 130.988L48.5198 138.212L50.0318 133.256C50.1158 133.032 50.2651 132.92 50.4798 132.92H50.9978C51.1191 132.92 51.2124 132.952 51.2778 133.018C51.3524 133.083 51.4038 133.162 51.4318 133.256L52.9578 138.212L54.3718 130.988C54.3998 130.829 54.5164 130.75 54.7218 130.75H55.4498C55.5244 130.75 55.5898 130.778 55.6458 130.834C55.7018 130.89 55.7298 130.955 55.7298 131.03L55.7158 131.184L53.9098 140.172C53.8538 140.424 53.7091 140.55 53.4758 140.55H52.9298C52.6871 140.55 52.5331 140.433 52.4678 140.2L50.7318 134.866L49.0098 140.2C48.9351 140.433 48.7811 140.55 48.5478 140.55H48.0018ZM60.0599 140.69C59.0333 140.69 58.2353 140.4 57.6659 139.822C57.1059 139.243 56.8073 138.473 56.7699 137.512L56.7559 136.91L56.7699 136.308C56.8073 135.356 57.1106 134.59 57.6799 134.012C58.2493 133.424 59.0426 133.13 60.0599 133.13C61.0773 133.13 61.8706 133.424 62.4399 134.012C63.0093 134.59 63.3126 135.356 63.3499 136.308C63.3593 136.41 63.3639 136.611 63.3639 136.91C63.3639 137.208 63.3593 137.409 63.3499 137.512C63.3126 138.473 63.0093 139.243 62.4399 139.822C61.8799 140.4 61.0866 140.69 60.0599 140.69ZM60.0599 139.612C60.6479 139.612 61.1099 139.425 61.4459 139.052C61.7913 138.678 61.9779 138.142 62.0059 137.442C62.0153 137.348 62.0199 137.171 62.0199 136.91C62.0199 136.648 62.0153 136.471 62.0059 136.378C61.9779 135.678 61.7913 135.141 61.4459 134.768C61.1099 134.394 60.6479 134.208 60.0599 134.208C59.4719 134.208 59.0053 134.394 58.6599 134.768C58.3146 135.141 58.1326 135.678 58.1139 136.378L58.0999 136.91L58.1139 137.442C58.1326 138.142 58.3146 138.678 58.6599 139.052C59.0053 139.425 59.4719 139.612 60.0599 139.612ZM65.439 140.55C65.3457 140.55 65.2663 140.522 65.201 140.466C65.145 140.4 65.117 140.321 65.117 140.228V133.606C65.117 133.512 65.145 133.433 65.201 133.368C65.2663 133.302 65.3457 133.27 65.439 133.27H66.083C66.1763 133.27 66.2557 133.302 66.321 133.368C66.3863 133.433 66.419 133.512 66.419 133.606V134.222C66.8017 133.587 67.455 133.27 68.379 133.27H68.925C69.0183 133.27 69.093 133.302 69.149 133.368C69.2143 133.424 69.247 133.498 69.247 133.592V134.166C69.247 134.259 69.2143 134.334 69.149 134.39C69.093 134.446 69.0183 134.474 68.925 134.474H68.085C67.581 134.474 67.1843 134.623 66.895 134.922C66.6057 135.211 66.461 135.608 66.461 136.112V140.228C66.461 140.321 66.4283 140.4 66.363 140.466C66.2977 140.522 66.2183 140.55 66.125 140.55H65.439ZM70.7714 140.55C70.678 140.55 70.5987 140.522 70.5334 140.466C70.4774 140.4 70.4494 140.321 70.4494 140.228V130.932C70.4494 130.838 70.4774 130.764 70.5334 130.708C70.5987 130.642 70.678 130.61 70.7714 130.61H71.4294C71.5227 130.61 71.5974 130.642 71.6534 130.708C71.7187 130.764 71.7514 130.838 71.7514 130.932V135.804L74.5094 133.508C74.5374 133.489 74.584 133.452 74.6494 133.396C74.7147 133.349 74.7754 133.316 74.8314 133.298C74.8967 133.279 74.976 133.27 75.0694 133.27H75.8114C75.8954 133.27 75.9654 133.298 76.0214 133.354C76.0774 133.41 76.1054 133.48 76.1054 133.564C76.1054 133.666 76.0494 133.755 75.9374 133.83L72.7034 136.518L76.2874 140.004C76.3994 140.097 76.4554 140.181 76.4554 140.256C76.4554 140.34 76.4274 140.41 76.3714 140.466C76.3154 140.522 76.2454 140.55 76.1614 140.55H75.4334C75.2934 140.55 75.1907 140.536 75.1254 140.508C75.0694 140.48 74.9854 140.414 74.8734 140.312L71.7514 137.33V140.228C71.7514 140.321 71.7187 140.4 71.6534 140.466C71.5974 140.522 71.5227 140.55 71.4294 140.55H70.7714ZM80.0374 140.69C79.3841 140.69 78.8334 140.587 78.3854 140.382C77.9467 140.167 77.6154 139.924 77.3914 139.654C77.1767 139.383 77.0694 139.159 77.0694 138.982C77.0694 138.888 77.1021 138.818 77.1674 138.772C77.2421 138.716 77.3167 138.688 77.3914 138.688H78.0214C78.1147 138.688 78.1987 138.734 78.2734 138.828C78.4974 139.089 78.7401 139.294 79.0014 139.444C79.2627 139.593 79.6127 139.668 80.0514 139.668C80.5367 139.668 80.9287 139.574 81.2274 139.388C81.5354 139.192 81.6894 138.926 81.6894 138.59C81.6894 138.366 81.6241 138.184 81.4934 138.044C81.3721 137.894 81.1574 137.768 80.8494 137.666C80.5507 137.554 80.1027 137.432 79.5054 137.302C78.6934 137.124 78.1147 136.868 77.7694 136.532C77.4334 136.196 77.2654 135.762 77.2654 135.23C77.2654 134.875 77.3681 134.539 77.5734 134.222C77.7881 133.895 78.0961 133.634 78.4974 133.438C78.9081 133.232 79.3981 133.13 79.9674 133.13C80.5647 133.13 81.0734 133.228 81.4934 133.424C81.9134 133.62 82.2261 133.853 82.4314 134.124C82.6461 134.385 82.7534 134.604 82.7534 134.782C82.7534 134.866 82.7207 134.936 82.6554 134.992C82.5994 135.048 82.5294 135.076 82.4454 135.076H81.8574C81.7454 135.076 81.6521 135.029 81.5774 134.936C81.4281 134.758 81.2974 134.623 81.1854 134.53C81.0827 134.427 80.9287 134.338 80.7234 134.264C80.5274 134.189 80.2754 134.152 79.9674 134.152C79.5194 134.152 79.1741 134.25 78.9314 134.446C78.6887 134.632 78.5674 134.88 78.5674 135.188C78.5674 135.384 78.6187 135.552 78.7214 135.692C78.8241 135.822 79.0201 135.944 79.3094 136.056C79.6081 136.168 80.0374 136.284 80.5974 136.406C81.4841 136.592 82.1094 136.863 82.4734 137.218C82.8467 137.563 83.0334 138.006 83.0334 138.548C83.0334 138.949 82.9167 139.313 82.6834 139.64C82.4501 139.966 82.1047 140.223 81.6474 140.41C81.1994 140.596 80.6627 140.69 80.0374 140.69ZM91.0677 140.69C90.0411 140.69 89.2431 140.4 88.6737 139.822C88.1137 139.243 87.8151 138.473 87.7777 137.512L87.7637 136.91L87.7777 136.308C87.8151 135.356 88.1184 134.59 88.6877 134.012C89.2571 133.424 90.0504 133.13 91.0677 133.13C92.0851 133.13 92.8784 133.424 93.4477 134.012C94.0171 134.59 94.3204 135.356 94.3577 136.308C94.3671 136.41 94.3717 136.611 94.3717 136.91C94.3717 137.208 94.3671 137.409 94.3577 137.512C94.3204 138.473 94.0171 139.243 93.4477 139.822C92.8877 140.4 92.0944 140.69 91.0677 140.69ZM91.0677 139.612C91.6557 139.612 92.1177 139.425 92.4537 139.052C92.7991 138.678 92.9857 138.142 93.0137 137.442C93.0231 137.348 93.0277 137.171 93.0277 136.91C93.0277 136.648 93.0231 136.471 93.0137 136.378C92.9857 135.678 92.7991 135.141 92.4537 134.768C92.1177 134.394 91.6557 134.208 91.0677 134.208C90.4797 134.208 90.0131 134.394 89.6677 134.768C89.3224 135.141 89.1404 135.678 89.1217 136.378L89.1077 136.91L89.1217 137.442C89.1404 138.142 89.3224 138.678 89.6677 139.052C90.0131 139.425 90.4797 139.612 91.0677 139.612ZM96.4468 140.55C96.3535 140.55 96.2741 140.522 96.2088 140.466C96.1528 140.4 96.1248 140.321 96.1248 140.228V133.592C96.1248 133.498 96.1528 133.424 96.2088 133.368C96.2741 133.302 96.3535 133.27 96.4468 133.27H97.1048C97.1981 133.27 97.2728 133.302 97.3288 133.368C97.3941 133.424 97.4268 133.498 97.4268 133.592V134.208C97.6975 133.862 98.0148 133.596 98.3788 133.41C98.7521 133.223 99.2141 133.13 99.7648 133.13C100.661 133.13 101.356 133.419 101.851 133.998C102.355 134.567 102.607 135.328 102.607 136.28V140.228C102.607 140.321 102.574 140.4 102.509 140.466C102.453 140.522 102.378 140.55 102.285 140.55H101.585C101.491 140.55 101.412 140.522 101.347 140.466C101.291 140.4 101.263 140.321 101.263 140.228V136.35C101.263 135.687 101.099 135.174 100.773 134.81C100.455 134.446 99.9935 134.264 99.3868 134.264C98.7988 134.264 98.3321 134.45 97.9868 134.824C97.6415 135.188 97.4688 135.696 97.4688 136.35V140.228C97.4688 140.321 97.4361 140.4 97.3708 140.466C97.3148 140.522 97.2401 140.55 97.1468 140.55H96.4468ZM107.202 140.55C107.127 140.55 107.062 140.522 107.006 140.466C106.95 140.41 106.922 140.344 106.922 140.27C106.922 140.195 106.926 140.144 106.936 140.116L110.408 131.058C110.482 130.852 110.632 130.75 110.856 130.75H111.808C112.032 130.75 112.181 130.852 112.256 131.058L115.714 140.116L115.742 140.27C115.742 140.344 115.714 140.41 115.658 140.466C115.602 140.522 115.536 140.55 115.462 140.55H114.748C114.645 140.55 114.566 140.526 114.51 140.48C114.454 140.424 114.416 140.368 114.398 140.312L113.628 138.324H109.036L108.266 140.312C108.247 140.368 108.205 140.424 108.14 140.48C108.084 140.526 108.009 140.55 107.916 140.55H107.202ZM113.222 137.12L111.332 132.15L109.442 137.12H113.222ZM117.392 140.55C117.299 140.55 117.22 140.522 117.154 140.466C117.098 140.4 117.07 140.321 117.07 140.228V130.932C117.07 130.838 117.098 130.764 117.154 130.708C117.22 130.642 117.299 130.61 117.392 130.61H118.05C118.144 130.61 118.218 130.642 118.274 130.708C118.34 130.764 118.372 130.838 118.372 130.932V140.228C118.372 140.321 118.34 140.4 118.274 140.466C118.218 140.522 118.144 140.55 118.05 140.55H117.392ZM120.797 140.55C120.703 140.55 120.624 140.522 120.559 140.466C120.503 140.4 120.475 140.321 120.475 140.228V130.932C120.475 130.838 120.503 130.764 120.559 130.708C120.624 130.642 120.703 130.61 120.797 130.61H121.455C121.548 130.61 121.623 130.642 121.679 130.708C121.744 130.764 121.777 130.838 121.777 130.932V140.228C121.777 140.321 121.744 140.4 121.679 140.466C121.623 140.522 121.548 140.55 121.455 140.55H120.797ZM127.801 140.55C127.707 140.55 127.628 140.522 127.563 140.466C127.507 140.4 127.479 140.321 127.479 140.228V131.086C127.479 130.983 127.507 130.904 127.563 130.848C127.628 130.782 127.707 130.75 127.801 130.75H130.979C132.388 130.75 133.405 131.067 134.031 131.702C134.656 132.327 134.983 133.274 135.011 134.544C135.02 134.814 135.025 135.178 135.025 135.636C135.025 136.093 135.02 136.462 135.011 136.742C134.983 137.628 134.833 138.352 134.563 138.912C134.301 139.462 133.886 139.873 133.317 140.144C132.747 140.414 131.991 140.55 131.049 140.55H127.801ZM130.979 139.36C131.623 139.36 132.131 139.271 132.505 139.094C132.887 138.916 133.163 138.636 133.331 138.254C133.508 137.862 133.606 137.339 133.625 136.686C133.643 136.126 133.653 135.776 133.653 135.636C133.653 135.486 133.643 135.141 133.625 134.6C133.606 133.676 133.387 133.004 132.967 132.584C132.547 132.154 131.861 131.94 130.909 131.94H128.851V139.36H130.979ZM139.861 140.69C138.9 140.69 138.13 140.396 137.551 139.808C136.982 139.21 136.669 138.398 136.613 137.372L136.599 136.896L136.613 136.434C136.678 135.426 136.996 134.623 137.565 134.026C138.144 133.428 138.904 133.13 139.847 133.13C140.883 133.13 141.686 133.461 142.255 134.124C142.824 134.777 143.109 135.664 143.109 136.784V137.022C143.109 137.115 143.076 137.194 143.011 137.26C142.955 137.316 142.88 137.344 142.787 137.344H137.943V137.47C137.971 138.076 138.153 138.594 138.489 139.024C138.834 139.444 139.287 139.654 139.847 139.654C140.276 139.654 140.626 139.57 140.897 139.402C141.177 139.224 141.382 139.042 141.513 138.856C141.597 138.744 141.658 138.678 141.695 138.66C141.742 138.632 141.821 138.618 141.933 138.618H142.619C142.703 138.618 142.773 138.641 142.829 138.688C142.885 138.734 142.913 138.8 142.913 138.884C142.913 139.089 142.782 139.336 142.521 139.626C142.269 139.915 141.91 140.167 141.443 140.382C140.986 140.587 140.458 140.69 139.861 140.69ZM141.779 136.378V136.336C141.779 135.692 141.602 135.169 141.247 134.768C140.902 134.357 140.435 134.152 139.847 134.152C139.259 134.152 138.792 134.357 138.447 134.768C138.111 135.169 137.943 135.692 137.943 136.336V136.378H141.779ZM147.071 140.55C146.828 140.55 146.656 140.433 146.553 140.2L143.963 133.704L143.935 133.564C143.935 133.48 143.963 133.41 144.019 133.354C144.075 133.298 144.145 133.27 144.229 133.27H144.901C145.06 133.27 145.176 133.349 145.251 133.508L147.379 139.024L149.507 133.508C149.591 133.349 149.703 133.27 149.843 133.27H150.529C150.604 133.27 150.669 133.298 150.725 133.354C150.79 133.41 150.823 133.48 150.823 133.564L150.795 133.704L148.191 140.2C148.088 140.433 147.916 140.55 147.673 140.55H147.071ZM152.499 131.912C152.406 131.912 152.326 131.884 152.261 131.828C152.205 131.762 152.177 131.683 152.177 131.59V130.834C152.177 130.74 152.205 130.661 152.261 130.596C152.326 130.53 152.406 130.498 152.499 130.498H153.381C153.474 130.498 153.554 130.53 153.619 130.596C153.684 130.661 153.717 130.74 153.717 130.834V131.59C153.717 131.683 153.684 131.762 153.619 131.828C153.554 131.884 153.474 131.912 153.381 131.912H152.499ZM152.611 140.55C152.518 140.55 152.438 140.522 152.373 140.466C152.317 140.4 152.289 140.321 152.289 140.228V133.592C152.289 133.498 152.317 133.424 152.373 133.368C152.438 133.302 152.518 133.27 152.611 133.27H153.283C153.376 133.27 153.451 133.302 153.507 133.368C153.572 133.424 153.605 133.498 153.605 133.592V140.228C153.605 140.321 153.572 140.4 153.507 140.466C153.451 140.522 153.376 140.55 153.283 140.55H152.611ZM158.619 140.69C157.621 140.69 156.837 140.41 156.267 139.85C155.707 139.28 155.409 138.487 155.371 137.47L155.357 136.91L155.371 136.35C155.409 135.332 155.707 134.544 156.267 133.984C156.837 133.414 157.621 133.13 158.619 133.13C159.291 133.13 159.861 133.251 160.327 133.494C160.794 133.736 161.139 134.035 161.363 134.39C161.597 134.744 161.723 135.099 161.741 135.454C161.751 135.547 161.723 135.622 161.657 135.678C161.592 135.734 161.513 135.762 161.419 135.762H160.747C160.654 135.762 160.584 135.743 160.537 135.706C160.491 135.668 160.444 135.594 160.397 135.482C160.239 135.034 160.015 134.716 159.725 134.53C159.436 134.334 159.072 134.236 158.633 134.236C158.055 134.236 157.593 134.418 157.247 134.782C156.911 135.136 156.729 135.682 156.701 136.42L156.687 136.924L156.701 137.4C156.729 138.146 156.911 138.697 157.247 139.052C157.583 139.406 158.045 139.584 158.633 139.584C159.072 139.584 159.436 139.49 159.725 139.304C160.015 139.108 160.239 138.786 160.397 138.338C160.444 138.226 160.491 138.151 160.537 138.114C160.584 138.067 160.654 138.044 160.747 138.044H161.419C161.513 138.044 161.592 138.076 161.657 138.142C161.723 138.198 161.751 138.272 161.741 138.366C161.723 138.711 161.597 139.066 161.363 139.43C161.139 139.784 160.794 140.083 160.327 140.326C159.87 140.568 159.301 140.69 158.619 140.69ZM166.316 140.69C165.355 140.69 164.585 140.396 164.006 139.808C163.437 139.21 163.124 138.398 163.068 137.372L163.054 136.896L163.068 136.434C163.133 135.426 163.451 134.623 164.02 134.026C164.599 133.428 165.359 133.13 166.302 133.13C167.338 133.13 168.141 133.461 168.71 134.124C169.279 134.777 169.564 135.664 169.564 136.784V137.022C169.564 137.115 169.531 137.194 169.466 137.26C169.41 137.316 169.335 137.344 169.242 137.344H164.398V137.47C164.426 138.076 164.608 138.594 164.944 139.024C165.289 139.444 165.742 139.654 166.302 139.654C166.731 139.654 167.081 139.57 167.352 139.402C167.632 139.224 167.837 139.042 167.968 138.856C168.052 138.744 168.113 138.678 168.15 138.66C168.197 138.632 168.276 138.618 168.388 138.618H169.074C169.158 138.618 169.228 138.641 169.284 138.688C169.34 138.734 169.368 138.8 169.368 138.884C169.368 139.089 169.237 139.336 168.976 139.626C168.724 139.915 168.365 140.167 167.898 140.382C167.441 140.587 166.913 140.69 166.316 140.69ZM168.234 136.378V136.336C168.234 135.692 168.057 135.169 167.702 134.768C167.357 134.357 166.89 134.152 166.302 134.152C165.714 134.152 165.247 134.357 164.902 134.768C164.566 135.169 164.398 135.692 164.398 136.336V136.378H168.234ZM173.758 140.69C173.105 140.69 172.554 140.587 172.106 140.382C171.667 140.167 171.336 139.924 171.112 139.654C170.897 139.383 170.79 139.159 170.79 138.982C170.79 138.888 170.823 138.818 170.888 138.772C170.963 138.716 171.037 138.688 171.112 138.688H171.742C171.835 138.688 171.919 138.734 171.994 138.828C172.218 139.089 172.461 139.294 172.722 139.444C172.983 139.593 173.333 139.668 173.772 139.668C174.257 139.668 174.649 139.574 174.948 139.388C175.256 139.192 175.41 138.926 175.41 138.59C175.41 138.366 175.345 138.184 175.214 138.044C175.093 137.894 174.878 137.768 174.57 137.666C174.271 137.554 173.823 137.432 173.226 137.302C172.414 137.124 171.835 136.868 171.49 136.532C171.154 136.196 170.986 135.762 170.986 135.23C170.986 134.875 171.089 134.539 171.294 134.222C171.509 133.895 171.817 133.634 172.218 133.438C172.629 133.232 173.119 133.13 173.688 133.13C174.285 133.13 174.794 133.228 175.214 133.424C175.634 133.62 175.947 133.853 176.152 134.124C176.367 134.385 176.474 134.604 176.474 134.782C176.474 134.866 176.441 134.936 176.376 134.992C176.32 135.048 176.25 135.076 176.166 135.076H175.578C175.466 135.076 175.373 135.029 175.298 134.936C175.149 134.758 175.018 134.623 174.906 134.53C174.803 134.427 174.649 134.338 174.444 134.264C174.248 134.189 173.996 134.152 173.688 134.152C173.24 134.152 172.895 134.25 172.652 134.446C172.409 134.632 172.288 134.88 172.288 135.188C172.288 135.384 172.339 135.552 172.442 135.692C172.545 135.822 172.741 135.944 173.03 136.056C173.329 136.168 173.758 136.284 174.318 136.406C175.205 136.592 175.83 136.863 176.194 137.218C176.567 137.563 176.754 138.006 176.754 138.548C176.754 138.949 176.637 139.313 176.404 139.64C176.171 139.966 175.825 140.223 175.368 140.41C174.92 140.596 174.383 140.69 173.758 140.69Z" fill="#4F5665"/>
<path d="M50.0458 20.6896C48.8418 20.6896 47.9084 20.3676 47.2458 19.7236C46.5924 19.0702 46.2658 18.0856 46.2658 16.7696V11.0856C46.2658 10.9829 46.2938 10.9036 46.3498 10.8476C46.4151 10.7822 46.4944 10.7496 46.5878 10.7496H47.3018C47.4044 10.7496 47.4838 10.7822 47.5398 10.8476C47.6051 10.9036 47.6378 10.9829 47.6378 11.0856V16.7976C47.6378 17.6936 47.8478 18.3656 48.2678 18.8136C48.6878 19.2616 49.2804 19.4856 50.0458 19.4856C50.8111 19.4856 51.4038 19.2616 51.8238 18.8136C52.2438 18.3656 52.4538 17.6936 52.4538 16.7976V11.0856C52.4538 10.9829 52.4818 10.9036 52.5378 10.8476C52.6031 10.7822 52.6824 10.7496 52.7758 10.7496H53.5038C53.5971 10.7496 53.6718 10.7822 53.7278 10.8476C53.7931 10.9129 53.8258 10.9922 53.8258 11.0856V16.7696C53.8258 18.0856 53.4944 19.0702 52.8318 19.7236C52.1784 20.3676 51.2498 20.6896 50.0458 20.6896ZM56.3062 20.5496C56.2128 20.5496 56.1335 20.5216 56.0682 20.4656C56.0122 20.4002 55.9842 20.3209 55.9842 20.2276V13.5916C55.9842 13.4982 56.0122 13.4236 56.0682 13.3676C56.1335 13.3022 56.2128 13.2696 56.3062 13.2696H56.9642C57.0575 13.2696 57.1322 13.3022 57.1882 13.3676C57.2535 13.4236 57.2862 13.4982 57.2862 13.5916V14.2076C57.5568 13.8622 57.8742 13.5962 58.2382 13.4096C58.6115 13.2229 59.0735 13.1296 59.6242 13.1296C60.5202 13.1296 61.2155 13.4189 61.7102 13.9976C62.2142 14.5669 62.4662 15.3276 62.4662 16.2796V20.2276C62.4662 20.3209 62.4335 20.4002 62.3682 20.4656C62.3122 20.5216 62.2375 20.5496 62.1442 20.5496H61.4442C61.3508 20.5496 61.2715 20.5216 61.2062 20.4656C61.1502 20.4002 61.1222 20.3209 61.1222 20.2276V16.3496C61.1222 15.6869 60.9588 15.1736 60.6322 14.8096C60.3148 14.4456 59.8528 14.2636 59.2462 14.2636C58.6582 14.2636 58.1915 14.4502 57.8462 14.8236C57.5008 15.1876 57.3282 15.6962 57.3282 16.3496V20.2276C57.3282 20.3209 57.2955 20.4002 57.2302 20.4656C57.1742 20.5216 57.0995 20.5496 57.0062 20.5496H56.3062ZM64.8104 20.5496C64.7171 20.5496 64.6377 20.5216 64.5724 20.4656C64.5164 20.4002 64.4884 20.3209 64.4884 20.2276V10.9316C64.4884 10.8382 64.5164 10.7636 64.5724 10.7076C64.6377 10.6422 64.7171 10.6096 64.8104 10.6096H65.4684C65.5617 10.6096 65.6364 10.6422 65.6924 10.7076C65.7577 10.7636 65.7904 10.8382 65.7904 10.9316V20.2276C65.7904 20.3209 65.7577 20.4002 65.6924 20.4656C65.6364 20.5216 65.5617 20.5496 65.4684 20.5496H64.8104ZM68.0887 11.9116C67.9954 11.9116 67.916 11.8836 67.8507 11.8276C67.7947 11.7622 67.7667 11.6829 67.7667 11.5896V10.8336C67.7667 10.7402 67.7947 10.6609 67.8507 10.5956C67.916 10.5302 67.9954 10.4976 68.0887 10.4976H68.9707C69.064 10.4976 69.1434 10.5302 69.2087 10.5956C69.274 10.6609 69.3067 10.7402 69.3067 10.8336V11.5896C69.3067 11.6829 69.274 11.7622 69.2087 11.8276C69.1434 11.8836 69.064 11.9116 68.9707 11.9116H68.0887ZM68.2007 20.5496C68.1074 20.5496 68.028 20.5216 67.9627 20.4656C67.9067 20.4002 67.8787 20.3209 67.8787 20.2276V13.5916C67.8787 13.4982 67.9067 13.4236 67.9627 13.3676C68.028 13.3022 68.1074 13.2696 68.2007 13.2696H68.8727C68.966 13.2696 69.0407 13.3022 69.0967 13.3676C69.162 13.4236 69.1947 13.4982 69.1947 13.5916V20.2276C69.1947 20.3209 69.162 20.4002 69.0967 20.4656C69.0407 20.5216 68.966 20.5496 68.8727 20.5496H68.2007ZM71.5913 20.5496C71.498 20.5496 71.4187 20.5216 71.3533 20.4656C71.2973 20.4002 71.2693 20.3209 71.2693 20.2276V13.5916C71.2693 13.4982 71.2973 13.4236 71.3533 13.3676C71.4187 13.3022 71.498 13.2696 71.5913 13.2696H72.2213C72.3147 13.2696 72.3893 13.3022 72.4453 13.3676C72.5107 13.4236 72.5433 13.4982 72.5433 13.5916V14.0816C73.0287 13.4469 73.7053 13.1296 74.5733 13.1296C75.6093 13.1296 76.342 13.5589 76.7713 14.4176C76.9953 14.0256 77.3127 13.7129 77.7233 13.4796C78.134 13.2462 78.596 13.1296 79.1093 13.1296C79.8747 13.1296 80.5 13.3909 80.9853 13.9136C81.4707 14.4362 81.7133 15.1922 81.7133 16.1816V20.2276C81.7133 20.3209 81.6807 20.4002 81.6153 20.4656C81.5593 20.5216 81.4847 20.5496 81.3913 20.5496H80.7333C80.64 20.5496 80.5607 20.5216 80.4953 20.4656C80.4393 20.4002 80.4113 20.3209 80.4113 20.2276V16.3076C80.4113 15.5796 80.2573 15.0569 79.9493 14.7396C79.6507 14.4222 79.254 14.2636 78.7593 14.2636C78.3207 14.2636 77.9427 14.4269 77.6253 14.7536C77.308 15.0709 77.1493 15.5889 77.1493 16.3076V20.2276C77.1493 20.3209 77.1167 20.4002 77.0513 20.4656C76.9953 20.5216 76.9207 20.5496 76.8273 20.5496H76.1693C76.076 20.5496 75.9967 20.5216 75.9313 20.4656C75.8753 20.4002 75.8473 20.3209 75.8473 20.2276V16.3076C75.8473 15.5796 75.6887 15.0569 75.3713 14.7396C75.0633 14.4222 74.6713 14.2636 74.1953 14.2636C73.7567 14.2636 73.3787 14.4269 73.0613 14.7536C72.744 15.0709 72.5853 15.5842 72.5853 16.2936V20.2276C72.5853 20.3209 72.5527 20.4002 72.4873 20.4656C72.4313 20.5216 72.3567 20.5496 72.2633 20.5496H71.5913ZM83.9207 11.9116C83.8274 11.9116 83.7481 11.8836 83.6827 11.8276C83.6267 11.7622 83.5987 11.6829 83.5987 11.5896V10.8336C83.5987 10.7402 83.6267 10.6609 83.6827 10.5956C83.7481 10.5302 83.8274 10.4976 83.9207 10.4976H84.8027C84.8961 10.4976 84.9754 10.5302 85.0407 10.5956C85.1061 10.6609 85.1387 10.7402 85.1387 10.8336V11.5896C85.1387 11.6829 85.1061 11.7622 85.0407 11.8276C84.9754 11.8836 84.8961 11.9116 84.8027 11.9116H83.9207ZM84.0327 20.5496C83.9394 20.5496 83.8601 20.5216 83.7947 20.4656C83.7387 20.4002 83.7107 20.3209 83.7107 20.2276V13.5916C83.7107 13.4982 83.7387 13.4236 83.7947 13.3676C83.8601 13.3022 83.9394 13.2696 84.0327 13.2696H84.7047C84.7981 13.2696 84.8727 13.3022 84.9287 13.3676C84.9941 13.4236 85.0267 13.4982 85.0267 13.5916V20.2276C85.0267 20.3209 84.9941 20.4002 84.9287 20.4656C84.8727 20.5216 84.7981 20.5496 84.7047 20.5496H84.0327ZM89.9434 20.5496C88.4687 20.5496 87.7314 19.7282 87.7314 18.0856V14.3896H86.6394C86.546 14.3896 86.4667 14.3616 86.4014 14.3056C86.3454 14.2402 86.3174 14.1609 86.3174 14.0676V13.5916C86.3174 13.4982 86.3454 13.4236 86.4014 13.3676C86.4667 13.3022 86.546 13.2696 86.6394 13.2696H87.7314V10.9316C87.7314 10.8382 87.7594 10.7636 87.8154 10.7076C87.8807 10.6422 87.96 10.6096 88.0534 10.6096H88.7114C88.8047 10.6096 88.8794 10.6422 88.9354 10.7076C89.0007 10.7636 89.0334 10.8382 89.0334 10.9316V13.2696H90.7694C90.8627 13.2696 90.9374 13.3022 90.9934 13.3676C91.0587 13.4236 91.0914 13.4982 91.0914 13.5916V14.0676C91.0914 14.1609 91.0587 14.2402 90.9934 14.3056C90.9374 14.3616 90.8627 14.3896 90.7694 14.3896H89.0334V17.9876C89.0334 18.4542 89.1127 18.8089 89.2714 19.0516C89.43 19.2849 89.6914 19.4016 90.0554 19.4016H90.9094C91.0027 19.4016 91.0774 19.4342 91.1334 19.4996C91.1987 19.5556 91.2314 19.6302 91.2314 19.7236V20.2276C91.2314 20.3209 91.1987 20.4002 91.1334 20.4656C91.0774 20.5216 91.0027 20.5496 90.9094 20.5496H89.9434ZM95.4821 20.6896C94.5208 20.6896 93.7508 20.3956 93.1721 19.8076C92.6028 19.2102 92.2901 18.3982 92.2341 17.3716L92.2201 16.8956L92.2341 16.4336C92.2995 15.4256 92.6168 14.6229 93.1861 14.0256C93.7648 13.4282 94.5255 13.1296 95.4681 13.1296C96.5041 13.1296 97.3068 13.4609 97.8761 14.1236C98.4455 14.7769 98.7301 15.6636 98.7301 16.7836V17.0216C98.7301 17.1149 98.6975 17.1942 98.6321 17.2596C98.5761 17.3156 98.5015 17.3436 98.4081 17.3436H93.5641V17.4696C93.5921 18.0762 93.7741 18.5942 94.1101 19.0236C94.4555 19.4436 94.9081 19.6536 95.4681 19.6536C95.8975 19.6536 96.2475 19.5696 96.5181 19.4016C96.7981 19.2242 97.0035 19.0422 97.1341 18.8556C97.2181 18.7436 97.2788 18.6782 97.3161 18.6596C97.3628 18.6316 97.4421 18.6176 97.5541 18.6176H98.2401C98.3241 18.6176 98.3941 18.6409 98.4501 18.6876C98.5061 18.7342 98.5341 18.7996 98.5341 18.8836C98.5341 19.0889 98.4035 19.3362 98.1421 19.6256C97.8901 19.9149 97.5308 20.1669 97.0641 20.3816C96.6068 20.5869 96.0795 20.6896 95.4821 20.6896ZM97.4001 16.3776V16.3356C97.4001 15.6916 97.2228 15.1689 96.8681 14.7676C96.5228 14.3569 96.0561 14.1516 95.4681 14.1516C94.8801 14.1516 94.4135 14.3569 94.0681 14.7676C93.7321 15.1689 93.5641 15.6916 93.5641 16.3356V16.3776H97.4001ZM103.064 20.6896C102.093 20.6896 101.361 20.3722 100.866 19.7376C100.371 19.1029 100.11 18.3002 100.082 17.3296L100.068 16.9096L100.082 16.4896C100.11 15.5282 100.371 14.7302 100.866 14.0956C101.361 13.4516 102.093 13.1296 103.064 13.1296C104.025 13.1296 104.781 13.4702 105.332 14.1516V10.9316C105.332 10.8382 105.36 10.7636 105.416 10.7076C105.481 10.6422 105.561 10.6096 105.654 10.6096H106.326C106.419 10.6096 106.494 10.6422 106.55 10.7076C106.615 10.7636 106.648 10.8382 106.648 10.9316V20.2276C106.648 20.3209 106.615 20.4002 106.55 20.4656C106.494 20.5216 106.419 20.5496 106.326 20.5496H105.696C105.603 20.5496 105.523 20.5216 105.458 20.4656C105.402 20.4002 105.374 20.3209 105.374 20.2276V19.6396C104.833 20.3396 104.063 20.6896 103.064 20.6896ZM103.358 19.5556C104.002 19.5556 104.483 19.3456 104.8 18.9256C105.127 18.4962 105.304 17.9876 105.332 17.3996C105.341 17.2969 105.346 17.1196 105.346 16.8676C105.346 16.6062 105.341 16.4242 105.332 16.3216C105.313 15.7709 105.136 15.2902 104.8 14.8796C104.464 14.4689 103.983 14.2636 103.358 14.2636C102.695 14.2636 102.21 14.4689 101.902 14.8796C101.603 15.2902 101.44 15.8316 101.412 16.5036L101.398 16.9096C101.398 18.6736 102.051 19.5556 103.358 19.5556ZM112.666 20.5496C112.573 20.5496 112.493 20.5216 112.428 20.4656C112.372 20.4002 112.344 20.3209 112.344 20.2276V11.0856C112.344 10.9829 112.372 10.9036 112.428 10.8476C112.493 10.7822 112.573 10.7496 112.666 10.7496H116.502C117.501 10.7496 118.252 10.9876 118.756 11.4636C119.26 11.9396 119.512 12.5649 119.512 13.3396C119.512 13.8622 119.391 14.2962 119.148 14.6416C118.915 14.9869 118.635 15.2389 118.308 15.3976C118.7 15.5936 119.031 15.8969 119.302 16.3076C119.573 16.7182 119.708 17.1896 119.708 17.7216C119.708 18.2442 119.587 18.7202 119.344 19.1496C119.111 19.5789 118.761 19.9196 118.294 20.1716C117.827 20.4236 117.267 20.5496 116.614 20.5496H112.666ZM116.292 14.8936C116.88 14.8936 117.328 14.7582 117.636 14.4876C117.953 14.2169 118.112 13.8389 118.112 13.3536C118.112 12.8776 117.958 12.5136 117.65 12.2616C117.342 12.0096 116.889 11.8836 116.292 11.8836H113.716V14.8936H116.292ZM116.432 19.4156C117.02 19.4156 117.477 19.2569 117.804 18.9396C118.14 18.6222 118.308 18.2162 118.308 17.7216C118.308 17.2082 118.14 16.7976 117.804 16.4896C117.477 16.1722 117.02 16.0136 116.432 16.0136H113.716V19.4156H116.432ZM123.543 20.6896C123.086 20.6896 122.661 20.5962 122.269 20.4096C121.877 20.2229 121.565 19.9709 121.331 19.6536C121.107 19.3269 120.995 18.9676 120.995 18.5756C120.995 17.9596 121.247 17.4556 121.751 17.0636C122.265 16.6622 122.955 16.4009 123.823 16.2796L125.909 15.9856V15.5796C125.909 14.6276 125.363 14.1516 124.271 14.1516C123.861 14.1516 123.525 14.2402 123.263 14.4176C123.002 14.5856 122.806 14.7862 122.675 15.0196C122.647 15.1036 122.61 15.1642 122.563 15.2016C122.526 15.2389 122.47 15.2576 122.395 15.2576H121.793C121.709 15.2576 121.635 15.2296 121.569 15.1736C121.513 15.1082 121.485 15.0336 121.485 14.9496C121.495 14.7256 121.597 14.4736 121.793 14.1936C121.999 13.9042 122.311 13.6569 122.731 13.4516C123.151 13.2369 123.669 13.1296 124.285 13.1296C125.331 13.1296 126.082 13.3769 126.539 13.8716C126.997 14.3569 127.225 14.9636 127.225 15.6916V20.2276C127.225 20.3209 127.193 20.4002 127.127 20.4656C127.071 20.5216 126.997 20.5496 126.903 20.5496H126.259C126.166 20.5496 126.087 20.5216 126.021 20.4656C125.965 20.4002 125.937 20.3209 125.937 20.2276V19.6256C125.732 19.9242 125.433 20.1762 125.041 20.3816C124.649 20.5869 124.15 20.6896 123.543 20.6896ZM123.837 19.6396C124.444 19.6396 124.939 19.4436 125.321 19.0516C125.713 18.6502 125.909 18.0762 125.909 17.3296V16.9376L124.285 17.1756C123.623 17.2689 123.123 17.4276 122.787 17.6516C122.451 17.8662 122.283 18.1416 122.283 18.4776C122.283 18.8509 122.437 19.1402 122.745 19.3456C123.053 19.5416 123.417 19.6396 123.837 19.6396ZM129.56 20.5496C129.467 20.5496 129.387 20.5216 129.322 20.4656C129.266 20.4002 129.238 20.3209 129.238 20.2276V13.5916C129.238 13.4982 129.266 13.4236 129.322 13.3676C129.387 13.3022 129.467 13.2696 129.56 13.2696H130.218C130.311 13.2696 130.386 13.3022 130.442 13.3676C130.507 13.4236 130.54 13.4982 130.54 13.5916V14.2076C130.811 13.8622 131.128 13.5962 131.492 13.4096C131.865 13.2229 132.327 13.1296 132.878 13.1296C133.774 13.1296 134.469 13.4189 134.964 13.9976C135.468 14.5669 135.72 15.3276 135.72 16.2796V20.2276C135.72 20.3209 135.687 20.4002 135.622 20.4656C135.566 20.5216 135.491 20.5496 135.398 20.5496H134.698C134.605 20.5496 134.525 20.5216 134.46 20.4656C134.404 20.4002 134.376 20.3209 134.376 20.2276V16.3496C134.376 15.6869 134.213 15.1736 133.886 14.8096C133.569 14.4456 133.107 14.2636 132.5 14.2636C131.912 14.2636 131.445 14.4502 131.1 14.8236C130.755 15.1876 130.582 15.6962 130.582 16.3496V20.2276C130.582 20.3209 130.549 20.4002 130.484 20.4656C130.428 20.5216 130.353 20.5496 130.26 20.5496H129.56ZM140.388 20.6896C139.418 20.6896 138.685 20.3722 138.19 19.7376C137.696 19.1029 137.434 18.3002 137.406 17.3296L137.392 16.9096L137.406 16.4896C137.434 15.5282 137.696 14.7302 138.19 14.0956C138.685 13.4516 139.418 13.1296 140.388 13.1296C141.35 13.1296 142.106 13.4702 142.656 14.1516V10.9316C142.656 10.8382 142.684 10.7636 142.74 10.7076C142.806 10.6422 142.885 10.6096 142.978 10.6096H143.65C143.744 10.6096 143.818 10.6422 143.874 10.7076C143.94 10.7636 143.972 10.8382 143.972 10.9316V20.2276C143.972 20.3209 143.94 20.4002 143.874 20.4656C143.818 20.5216 143.744 20.5496 143.65 20.5496H143.02C142.927 20.5496 142.848 20.5216 142.782 20.4656C142.726 20.4002 142.698 20.3209 142.698 20.2276V19.6396C142.157 20.3396 141.387 20.6896 140.388 20.6896ZM140.682 19.5556C141.326 19.5556 141.807 19.3456 142.124 18.9256C142.451 18.4962 142.628 17.9876 142.656 17.3996C142.666 17.2969 142.67 17.1196 142.67 16.8676C142.67 16.6062 142.666 16.4242 142.656 16.3216C142.638 15.7709 142.46 15.2902 142.124 14.8796C141.788 14.4689 141.308 14.2636 140.682 14.2636C140.02 14.2636 139.534 14.4689 139.226 14.8796C138.928 15.2902 138.764 15.8316 138.736 16.5036L138.722 16.9096C138.722 18.6736 139.376 19.5556 140.682 19.5556ZM147.986 20.5496C147.865 20.5496 147.772 20.5216 147.706 20.4656C147.641 20.4096 147.585 20.3209 147.538 20.1996L145.55 13.7036L145.522 13.5636C145.522 13.4796 145.55 13.4096 145.606 13.3536C145.672 13.2976 145.742 13.2696 145.816 13.2696H146.432C146.526 13.2696 146.6 13.2976 146.656 13.3536C146.722 13.4002 146.764 13.4516 146.782 13.5076L148.336 18.7856L150.002 13.5636C150.021 13.4889 150.063 13.4236 150.128 13.3676C150.194 13.3022 150.282 13.2696 150.394 13.2696H150.87C150.982 13.2696 151.071 13.3022 151.136 13.3676C151.202 13.4236 151.244 13.4889 151.262 13.5636L152.928 18.7856L154.482 13.5076C154.492 13.4609 154.524 13.4096 154.58 13.3536C154.646 13.2976 154.725 13.2696 154.818 13.2696H155.448C155.523 13.2696 155.588 13.2976 155.644 13.3536C155.7 13.4096 155.728 13.4796 155.728 13.5636L155.7 13.7036L153.726 20.1996C153.68 20.3209 153.624 20.4096 153.558 20.4656C153.493 20.5216 153.395 20.5496 153.264 20.5496H152.718C152.466 20.5496 152.312 20.4329 152.256 20.1996L150.632 15.1876L149.008 20.1996C148.934 20.4329 148.775 20.5496 148.532 20.5496H147.986ZM157.489 11.9116C157.396 11.9116 157.316 11.8836 157.251 11.8276C157.195 11.7622 157.167 11.6829 157.167 11.5896V10.8336C157.167 10.7402 157.195 10.6609 157.251 10.5956C157.316 10.5302 157.396 10.4976 157.489 10.4976H158.371C158.464 10.4976 158.544 10.5302 158.609 10.5956C158.674 10.6609 158.707 10.7402 158.707 10.8336V11.5896C158.707 11.6829 158.674 11.7622 158.609 11.8276C158.544 11.8836 158.464 11.9116 158.371 11.9116H157.489ZM157.601 20.5496C157.508 20.5496 157.428 20.5216 157.363 20.4656C157.307 20.4002 157.279 20.3209 157.279 20.2276V13.5916C157.279 13.4982 157.307 13.4236 157.363 13.3676C157.428 13.3022 157.508 13.2696 157.601 13.2696H158.273C158.366 13.2696 158.441 13.3022 158.497 13.3676C158.562 13.4236 158.595 13.4982 158.595 13.5916V20.2276C158.595 20.3209 158.562 20.4002 158.497 20.4656C158.441 20.5216 158.366 20.5496 158.273 20.5496H157.601ZM163.512 20.5496C162.037 20.5496 161.3 19.7282 161.3 18.0856V14.3896H160.208C160.114 14.3896 160.035 14.3616 159.97 14.3056C159.914 14.2402 159.886 14.1609 159.886 14.0676V13.5916C159.886 13.4982 159.914 13.4236 159.97 13.3676C160.035 13.3022 160.114 13.2696 160.208 13.2696H161.3V10.9316C161.3 10.8382 161.328 10.7636 161.384 10.7076C161.449 10.6422 161.528 10.6096 161.622 10.6096H162.28C162.373 10.6096 162.448 10.6422 162.504 10.7076C162.569 10.7636 162.602 10.8382 162.602 10.9316V13.2696H164.338C164.431 13.2696 164.506 13.3022 164.562 13.3676C164.627 13.4236 164.66 13.4982 164.66 13.5916V14.0676C164.66 14.1609 164.627 14.2402 164.562 14.3056C164.506 14.3616 164.431 14.3896 164.338 14.3896H162.602V17.9876C162.602 18.4542 162.681 18.8089 162.84 19.0516C162.998 19.2849 163.26 19.4016 163.624 19.4016H164.478C164.571 19.4016 164.646 19.4342 164.702 19.4996C164.767 19.5556 164.8 19.6302 164.8 19.7236V20.2276C164.8 20.3209 164.767 20.4002 164.702 20.4656C164.646 20.5216 164.571 20.5496 164.478 20.5496H163.512ZM169.078 20.6896C168.08 20.6896 167.296 20.4096 166.726 19.8496C166.166 19.2802 165.868 18.4869 165.83 17.4696L165.816 16.9096L165.83 16.3496C165.868 15.3322 166.166 14.5436 166.726 13.9836C167.296 13.4142 168.08 13.1296 169.078 13.1296C169.75 13.1296 170.32 13.2509 170.786 13.4936C171.253 13.7362 171.598 14.0349 171.822 14.3896C172.056 14.7442 172.182 15.0989 172.2 15.4536C172.21 15.5469 172.182 15.6216 172.116 15.6776C172.051 15.7336 171.972 15.7616 171.878 15.7616H171.206C171.113 15.7616 171.043 15.7429 170.996 15.7056C170.95 15.6682 170.903 15.5936 170.856 15.4816C170.698 15.0336 170.474 14.7162 170.184 14.5296C169.895 14.3336 169.531 14.2356 169.092 14.2356C168.514 14.2356 168.052 14.4176 167.706 14.7816C167.37 15.1362 167.188 15.6822 167.16 16.4196L167.146 16.9236L167.16 17.3996C167.188 18.1462 167.37 18.6969 167.706 19.0516C168.042 19.4062 168.504 19.5836 169.092 19.5836C169.531 19.5836 169.895 19.4902 170.184 19.3036C170.474 19.1076 170.698 18.7856 170.856 18.3376C170.903 18.2256 170.95 18.1509 170.996 18.1136C171.043 18.0669 171.113 18.0436 171.206 18.0436H171.878C171.972 18.0436 172.051 18.0762 172.116 18.1416C172.182 18.1976 172.21 18.2722 172.2 18.3656C172.182 18.7109 172.056 19.0656 171.822 19.4296C171.598 19.7842 171.253 20.0829 170.786 20.3256C170.329 20.5682 169.76 20.6896 169.078 20.6896ZM174.199 20.5496C174.106 20.5496 174.026 20.5216 173.961 20.4656C173.905 20.4002 173.877 20.3209 173.877 20.2276V10.9316C173.877 10.8382 173.905 10.7636 173.961 10.7076C174.026 10.6422 174.106 10.6096 174.199 10.6096H174.899C174.992 10.6096 175.067 10.6422 175.123 10.7076C175.188 10.7636 175.221 10.8382 175.221 10.9316V14.1936C175.492 13.8482 175.809 13.5869 176.173 13.4096C176.537 13.2229 176.99 13.1296 177.531 13.1296C178.427 13.1296 179.122 13.4189 179.617 13.9976C180.121 14.5669 180.373 15.3276 180.373 16.2796V20.2276C180.373 20.3209 180.34 20.4002 180.275 20.4656C180.219 20.5216 180.144 20.5496 180.051 20.5496H179.351C179.258 20.5496 179.178 20.5216 179.113 20.4656C179.057 20.4002 179.029 20.3209 179.029 20.2276V16.3496C179.029 15.6869 178.866 15.1736 178.539 14.8096C178.222 14.4456 177.76 14.2636 177.153 14.2636C176.565 14.2636 176.094 14.4502 175.739 14.8236C175.394 15.1876 175.221 15.6962 175.221 16.3496V20.2276C175.221 20.3209 175.188 20.4002 175.123 20.4656C175.067 20.5216 174.992 20.5496 174.899 20.5496H174.199Z" fill="#4F5665"/>
<path d="M11.4487 20.2796C11.3174 20.2798 11.1874 20.2542 11.0661 20.2041C10.9448 20.154 10.8345 20.0804 10.7417 19.9876L6.4997 15.7446C6.40412 15.6524 6.32786 15.5421 6.27537 15.4201C6.22288 15.2982 6.1952 15.167 6.19395 15.0342C6.19271 14.9014 6.21792 14.7697 6.26811 14.6468C6.3183 14.5239 6.39248 14.4122 6.4863 14.3182C6.58013 14.2242 6.69173 14.1499 6.81458 14.0995C6.93744 14.0492 7.0691 14.0238 7.20188 14.0248C7.33466 14.0259 7.4659 14.0534 7.58794 14.1057C7.70998 14.158 7.82038 14.2341 7.9127 14.3296L11.4477 17.8646L17.8127 11.5016C18.0002 11.3139 18.2546 11.2085 18.5198 11.2084C18.7851 11.2083 19.0396 11.3136 19.2272 11.5011C19.4148 11.6886 19.5203 11.943 19.5204 12.2082C19.5205 12.4735 19.4152 12.7279 19.2277 12.9156L12.1557 19.9876C12.0629 20.0804 11.9526 20.154 11.8313 20.2041C11.71 20.2542 11.58 20.2798 11.4487 20.2796Z" fill="#2FAB73"/>
</svg>
